<svg xmlns="http://www.w3.org/2000/svg" xmlns:xlink="http://www.w3.org/1999/xlink" width="38" height="38" viewBox="0 0 38 38">
  <defs>
    <linearGradient id="linear-gradient" x1="0.312" x2="0.786" y2="1" gradientUnits="objectBoundingBox">
      <stop offset="0" stop-color="#2473d9"/>
      <stop offset="1" stop-color="#0dc6f1"/>
    </linearGradient>
  </defs>
  <g id="airtime" transform="translate(0 0.34)">
    <circle id="Ellipse_2" data-name="Ellipse 2" cx="19" cy="19" r="19" transform="translate(0 -0.34)" fill="url(#linear-gradient)"/>
    <path id="iconfinder_plane_1608794" d="M211.118,134.882a2.052,2.052,0,0,1,.168,2.066,6.092,6.092,0,0,1-1.508,2.4l-2.247,2.247,2.233,9.716a.423.423,0,0,1-.168.461l-1.787,1.34a.394.394,0,0,1-.265.084.309.309,0,0,1-.1-.014.386.386,0,0,1-.293-.223l-3.895-7.091-3.615,3.615.74,2.708a.425.425,0,0,1-.112.433l-1.34,1.34a.435.435,0,0,1-.321.126h-.028a.5.5,0,0,1-.335-.181l-2.638-3.518-3.518-2.638a.417.417,0,0,1-.181-.321.479.479,0,0,1,.126-.349l1.34-1.354a.435.435,0,0,1,.321-.126.29.29,0,0,1,.112.014l2.708.74,3.615-3.615-7.091-3.895a.468.468,0,0,1-.237-.335.431.431,0,0,1,.126-.377l1.787-1.787a.406.406,0,0,1,.419-.112l9.283,2.219,2.233-2.233a6.092,6.092,0,0,1,2.4-1.508A2.052,2.052,0,0,1,211.118,134.882Z" transform="translate(-182.909 -125.526)" fill="#fff"/>
  </g>
</svg>
