<svg xmlns="http://www.w3.org/2000/svg" xmlns:xlink="http://www.w3.org/1999/xlink" width="53" height="53" viewBox="0 0 53 53">
  <defs>
    <linearGradient id="linear-gradient" x1="0.226" y1="0.227" x2="0.83" y2="1.245" gradientUnits="objectBoundingBox">
      <stop offset="0" stop-color="#2484ff"/>
      <stop offset="1" stop-color="#00c4ff"/>
    </linearGradient>
  </defs>
  <g id="shopping" transform="translate(-161.137 -719.137)">
    <g id="Group_1" data-name="Group 1" transform="translate(161.376 719.376)">
      <circle id="Ellipse_1" data-name="Ellipse 1" cx="26.5" cy="26.5" r="26.5" transform="translate(-0.239 -0.239)" fill="url(#linear-gradient)"/>
    </g>
    <g id="shopping_cart" transform="translate(178.137 736.137)">
      <g id="Core" transform="translate(-212 -422)">
        <g id="shopping-cart" transform="translate(212 422)">
          <path id="Shape" d="M6,16a2,2,0,1,0,2,2,2.006,2.006,0,0,0-2-2ZM0,0V2H2L5.6,9.6,4.2,12A3.553,3.553,0,0,0,4,13a2.006,2.006,0,0,0,2,2H18V13H6.4a.215.215,0,0,1-.2-.2v-.1L7.1,11h7.4a1.824,1.824,0,0,0,1.7-1l3.6-6.5A.551.551,0,0,0,20,3a.945.945,0,0,0-1-1H4.2L3.3,0ZM16,16a2,2,0,1,0,2,2,2.006,2.006,0,0,0-2-2Z" fill="#fff" fill-rule="evenodd"/>
        </g>
      </g>
    </g>
  </g>
</svg>
